<svg width="278" height="278" viewBox="0 0 278 278" fill="none" xmlns="http://www.w3.org/2000/svg">
<mask id="mask0_5_24" style="mask-type:alpha" maskUnits="userSpaceOnUse" x="0" y="0" width="278" height="278">
<rect width="278" height="278" fill="#C4C4C4"/>
</mask>
<g mask="url(#mask0_5_24)">
<path d="M71.0374 228.33L59.4728 216.766L30.1083 246.203C34.6596 250.77 50.0646 243.561 71.0374 228.33Z" fill="#E89141"/>
<path d="M30.0961 246.215L59.4607 216.778L47.8961 205.213C32.7015 226.238 25.5488 241.676 30.0961 246.215Z" fill="#D07017"/>
<path d="M219.169 56.6647C210.082 47.5782 185.011 56.5011 153.422 77.7001C163.317 82.0999 172.303 88.311 179.918 96.013L219.169 56.6647Z" fill="#58558A"/>
<path d="M198.303 122.485C219.454 90.8064 228.296 65.7675 219.173 56.6688L179.922 96.0172C187.65 103.613 193.886 112.591 198.303 122.485Z" fill="#302E53"/>
<path d="M90.1111 168.375C91.2687 167.215 92.6439 166.293 94.1581 165.664C95.6723 165.036 97.2957 164.711 98.9356 164.71C100.575 164.709 102.2 165.031 103.715 165.658C105.231 166.285 106.608 167.205 107.769 168.364L118.866 157.267C116.522 154.929 115.202 151.756 115.198 148.446C115.193 145.136 116.503 141.96 118.84 139.618C121.177 137.275 124.35 135.958 127.66 135.955C130.97 135.952 134.146 137.264 136.49 139.603L147.587 128.506C145.245 126.165 143.93 122.99 143.929 119.68C143.928 116.37 145.242 113.196 147.582 110.856C149.921 108.516 153.095 107.202 156.405 107.203C159.715 107.204 162.89 108.52 165.231 110.861L177.202 98.8905C168.739 90.4276 159.257 84.1423 149.892 80.2332C142.421 85.3883 134.614 91.1951 126.584 97.5969C125.556 98.4143 124.52 99.2479 123.484 100.09C107.76 112.89 92.6978 126.481 78.3557 140.813C56.147 137.471 27.0405 148.939 3.57638 172.46L32.662 201.472C34.4219 198.37 36.3467 195.364 38.428 192.467L61.217 215.199L90.1242 186.009C87.7869 183.669 86.4728 180.499 86.4704 177.193C86.4679 173.887 87.7773 170.716 90.1111 168.375Z" fill="#302E53"/>
<path d="M104.742 273.375C128.652 249.401 140.014 219.614 135.992 197.243C150.094 183.03 163.471 168.115 176.072 152.556C176.911 151.517 177.74 150.479 178.56 149.443C184.934 141.402 190.72 133.582 195.855 126.099C191.926 116.739 185.596 107.277 177.121 98.8177L165.15 110.788C167.491 113.13 168.807 116.304 168.808 119.614C168.809 122.924 167.495 126.098 165.155 128.438C162.815 130.778 159.641 132.092 156.331 132.091C153.022 132.09 149.847 130.774 147.506 128.433L136.409 139.53C138.753 141.868 140.072 145.042 140.077 148.351C140.082 151.661 138.771 154.837 136.434 157.179C134.097 159.522 130.925 160.84 127.615 160.842C124.305 160.845 121.128 159.533 118.785 157.195L107.688 168.291C110.032 170.63 111.351 173.803 111.356 177.113C111.361 180.423 110.05 183.599 107.713 185.941C105.376 188.284 102.203 189.601 98.8935 189.604C95.5836 189.607 92.4073 188.295 90.0635 185.956L61.0511 215.042L84.5933 238.519C81.6955 240.605 78.6866 242.533 75.5798 244.293L104.742 273.375Z" fill="#58558A"/>
<path d="M31.6208 202.776L2.32129 173.548L0.821719 175.052L30.1212 204.28L31.6208 202.776Z" fill="#58558A"/>
<path d="M103.172 274.459L73.9083 245.195L72.4068 246.697L101.671 275.961L103.172 274.459Z" fill="#302E53"/>
<path d="M161.867 125.126C163.32 123.666 164.134 121.69 164.131 119.63C164.127 117.57 163.306 115.595 161.848 114.139L150.873 125.115C151.594 125.837 152.451 126.411 153.394 126.802C154.337 127.194 155.348 127.396 156.369 127.397C157.39 127.398 158.401 127.198 159.344 126.809C160.288 126.419 161.145 125.847 161.867 125.126Z" fill="#D07017"/>
<path d="M150.866 114.157C150.146 114.877 149.575 115.733 149.187 116.674C148.798 117.615 148.598 118.624 148.599 119.643C148.6 120.661 148.802 121.67 149.193 122.611C149.583 123.552 150.156 124.407 150.877 125.127L161.852 114.152C161.131 113.429 160.274 112.856 159.331 112.465C158.388 112.074 157.377 111.873 156.356 111.874C155.336 111.874 154.325 112.076 153.383 112.468C152.441 112.86 151.585 113.433 150.866 114.157Z" fill="#E89141"/>
<path d="M122.161 142.934C121.441 143.655 120.871 144.51 120.482 145.452C120.093 146.393 119.893 147.402 119.894 148.42C119.895 149.439 120.097 150.448 120.488 151.389C120.879 152.33 121.451 153.184 122.172 153.904L133.151 142.925C132.429 142.204 131.571 141.632 130.628 141.242C129.684 140.852 128.673 140.651 127.653 140.652C126.632 140.653 125.622 140.855 124.679 141.247C123.737 141.638 122.881 142.212 122.161 142.934Z" fill="#E89141"/>
<path d="M133.162 153.904C133.883 153.181 134.453 152.324 134.842 151.381C135.231 150.438 135.43 149.428 135.428 148.408C135.426 147.387 135.224 146.377 134.832 145.435C134.439 144.493 133.866 143.638 133.143 142.917L122.164 153.896C122.885 154.62 123.742 155.194 124.686 155.586C125.63 155.979 126.641 156.181 127.663 156.181C128.685 156.182 129.696 155.981 130.64 155.59C131.584 155.199 132.441 154.626 133.162 153.904Z" fill="#D07017"/>
<path d="M93.4589 182.674C94.9287 184.066 96.8834 184.83 98.9071 184.803C100.931 184.776 102.864 183.961 104.294 182.53C105.725 181.1 106.54 179.167 106.567 177.143C106.594 175.119 105.83 173.165 104.438 171.695L93.4589 182.674Z" fill="#D07017"/>
<path d="M93.4517 171.708C92.0006 173.163 91.1863 175.135 91.1877 177.191C91.189 179.247 92.0058 181.219 93.4589 182.674L104.438 171.695C102.978 170.241 101.001 169.426 98.941 169.428C96.8811 169.431 94.9068 170.251 93.4517 171.708Z" fill="#E89141"/>
<path d="M78.5436 132.518C81.5438 129.583 84.552 126.691 87.5684 123.842C82.7184 104.678 84.3042 84.4538 92.0813 66.2867C99.8584 48.1197 113.395 33.0176 130.606 23.3076C147.817 13.5975 167.746 9.81833 187.324 12.5524C206.901 15.2864 225.039 24.3819 238.945 38.4374C252.85 52.4928 261.749 70.7282 264.272 90.3337C266.796 109.939 262.802 129.827 252.907 146.932C243.012 164.037 227.765 177.41 209.516 184.991C191.266 192.572 171.026 193.94 151.915 188.884C149.098 191.885 146.233 194.879 143.319 197.869C164.898 204.972 188.235 204.607 209.573 196.833C230.91 189.059 249.007 174.328 260.947 155.013C272.887 135.697 277.977 112.921 275.396 90.3532C272.815 67.785 262.714 46.7379 246.719 30.6015C230.724 14.465 209.767 4.1783 187.223 1.39804C164.678 -1.38222 141.858 3.50575 122.438 15.2748C103.017 27.0438 88.127 45.0089 80.1646 66.2769C72.2022 87.5448 71.6312 110.878 78.5436 132.518Z" fill="#D07017"/>
<path d="M95.6827 116.351C103.809 108.961 111.96 101.944 120.05 95.3928C121.105 94.543 122.152 93.7013 123.191 92.8677C129.569 87.7852 135.883 83.0183 142.027 78.64L141.857 78.5671L148.737 73.9462L149.376 73.5091L150.485 72.7646C175.858 55.7334 209.047 38.3928 223.288 52.302L223.41 52.4235C231.221 60.2345 234.08 79.2167 203.255 125.397L202.506 126.51L202.065 127.153L197.477 134.025L197.4 133.859C193.034 140.015 188.291 146.329 183.229 152.72C182.399 153.76 181.558 154.812 180.712 155.868C174.031 164.169 166.872 172.502 159.337 180.815C176.225 184.14 193.732 181.965 209.288 174.61C224.844 167.255 237.63 155.106 245.77 139.947C253.91 124.787 256.976 107.415 254.517 90.3793C252.058 73.3435 244.204 57.5413 232.108 45.2912C220.012 33.0412 204.31 24.9884 187.306 22.3144C170.303 19.6405 152.893 22.4862 137.632 30.434C122.371 38.3818 110.061 51.0132 102.51 66.4747C94.9585 81.9363 92.5629 99.4138 95.6746 116.343L95.6827 116.351Z" fill="#E89141" fill-opacity="0.5"/>
</g>
</svg>
